<svg xmlns="http://www.w3.org/2000/svg" width="115" height="24" viewBox="0 0 115 24" fill="none"> <path d="M8.21849 20.0151C6.60755 20.0151 5.20954 19.7743 4.02448 19.2929C2.83942 18.8115 1.92285 18.1356 1.27477 17.2653C0.626686 16.3765 0.302646 15.3396 0.302646 14.1546C0.302646 12.9695 0.617428 11.9696 1.24699 11.1549C1.87656 10.3401 2.78387 9.71983 3.96893 9.29395C5.15399 8.86807 6.57051 8.65512 8.21849 8.65512C9.86647 8.65512 11.283 8.86807 12.468 9.29395C13.6716 9.71983 14.5882 10.3494 15.2178 11.1826C15.8658 11.9974 16.1899 12.988 16.1899 14.1546C16.1899 15.3396 15.8566 16.3765 15.19 17.2653C14.5419 18.1356 13.6161 18.8115 12.4125 19.2929C11.2274 19.7743 9.82943 20.0151 8.21849 20.0151ZM8.21849 17.182C9.55168 17.182 10.6071 16.9043 11.3848 16.3488C12.1625 15.7933 12.5514 15.0248 12.5514 14.0435C12.5514 13.0806 12.1625 12.3214 11.3848 11.7659C10.6071 11.2104 9.55168 10.9327 8.21849 10.9327C6.88529 10.9327 5.83911 11.2104 5.07993 11.7659C4.32075 12.3214 3.94116 13.0806 3.94116 14.0435C3.94116 15.0248 4.32075 15.7933 5.07993 16.3488C5.83911 16.9043 6.88529 17.182 8.21849 17.182ZM8.21849 10.5438C6.71864 10.5438 5.43174 10.3494 4.35778 9.96054C3.28382 9.55318 2.45057 8.96991 1.85804 8.21073C1.28403 7.43303 0.997018 6.5072 0.997018 5.43324C0.997018 4.32224 1.29328 3.36864 1.88581 2.57242C2.49686 1.75769 3.34863 1.12813 4.4411 0.683732C5.53358 0.239334 6.79271 0.0171352 8.21849 0.0171352C9.66278 0.0171352 10.9312 0.239334 12.0236 0.683732C13.1161 1.12813 13.9679 1.75769 14.5789 2.57242C15.19 3.36864 15.4955 4.32224 15.4955 5.43324C15.4955 6.5072 15.1992 7.43303 14.6067 8.21073C14.0327 8.96991 13.1995 9.55318 12.107 9.96054C11.0145 10.3494 9.71833 10.5438 8.21849 10.5438ZM8.21849 8.32183C9.36652 8.32183 10.2738 8.08111 10.9404 7.59968C11.607 7.09973 11.9403 6.43313 11.9403 5.59989C11.9403 4.72961 11.5978 4.05375 10.9127 3.57232C10.2275 3.09089 9.32948 2.85017 8.21849 2.85017C7.10749 2.85017 6.2187 3.09089 5.5521 3.57232C4.8855 4.05375 4.5522 4.72961 4.5522 5.59989C4.5522 6.43313 4.87624 7.09973 5.52432 7.59968C6.19092 8.08111 7.08898 8.32183 8.21849 8.32183ZM27.7362 19.7373V0.294884H30.6803L39.2072 14.4879H37.6241L46.0121 0.294884H48.9562L49.0118 19.7373H45.5677L45.5399 5.65544H46.2621L39.1517 17.5153H37.5407L30.3193 5.65544H31.1525V19.7373H27.7362ZM53.9017 20.0151C53.5869 20.0151 53.2721 19.9873 52.9573 19.9317C52.6425 19.8762 52.3 19.8114 51.9297 19.7373L52.1796 16.5987C52.4389 16.6728 52.7166 16.7098 53.0129 16.7098C53.7906 16.7098 54.4109 16.3951 54.8738 15.7655C55.3367 15.1174 55.67 14.1731 55.8737 12.9325C56.0774 11.6918 56.2162 10.1642 56.2903 8.3496L56.5681 0.294884H70.8721V19.7373H67.3169V2.46133L68.1502 3.35012H58.9011L59.6788 2.43355L59.4844 8.21073C59.4289 10.1365 59.2993 11.8307 59.0956 13.2935C58.8919 14.7563 58.5771 15.9877 58.1512 16.9876C57.7439 17.969 57.1976 18.7189 56.5125 19.2374C55.8274 19.7558 54.9571 20.0151 53.9017 20.0151ZM76.3416 19.7373V0.294884H84.3408C86.0628 0.294884 87.5349 0.572633 88.757 1.12813C89.9976 1.68363 90.9512 2.47984 91.6178 3.51677C92.2844 4.5537 92.6177 5.78505 92.6177 7.21083C92.6177 8.63661 92.2844 9.86796 91.6178 10.9049C90.9512 11.9418 89.9976 12.738 88.757 13.2935C87.5349 13.849 86.0628 14.1268 84.3408 14.1268H78.3414L79.9523 12.4325V19.7373H76.3416ZM79.9523 12.8214L78.3414 11.0715H84.1741C85.7665 11.0715 86.9609 10.7382 87.7571 10.0716C88.5718 9.38653 88.9792 8.43293 88.9792 7.21083C88.9792 5.97022 88.5718 5.01662 87.7571 4.35002C86.9609 3.68342 85.7665 3.35012 84.1741 3.35012H78.3414L79.9523 1.57253V12.8214ZM108.081 18.0708V3.35012H100.471L100.332 6.79421C100.276 8.09037 100.193 9.32172 100.082 10.4883C99.9892 11.6363 99.8318 12.6825 99.6096 13.6268C99.4059 14.5712 99.1189 15.3581 98.7486 15.9877C98.3782 16.6173 97.9246 17.0339 97.3876 17.2376L93.4991 16.6821C94.2027 16.7191 94.7767 16.4784 95.2211 15.9599C95.6841 15.4415 96.0451 14.7193 96.3044 13.7935C96.5636 12.8676 96.758 11.7844 96.8876 10.5438C97.0173 9.28469 97.1098 7.92372 97.1654 6.46091L97.3876 0.294884H111.636V18.0708H108.081ZM92.8325 23.8758L92.8603 16.6821H114.441V23.8758H111.108V19.7373H96.1933V23.8758H92.8325Z" fill="url(#paint0_linear_305_878)"/> <defs> <linearGradient id="paint0_linear_305_878" x1="57.1554" y1="-6.2627" x2="57.1554" y2="45.6538" gradientUnits="userSpaceOnUse"> <stop stop-color="white"/> <stop offset="1" stop-color="white" stop-opacity="0"/> </linearGradient> </defs> </svg>