<svg xmlns="http://www.w3.org/2000/svg" width="124" height="21" viewBox="0 0 124 21" fill="none"> <path d="M5.01196 19.7373V1.68363L6.59512 3.32235H0.901272V0.294884H8.62269V19.7373H5.01196ZM21.6832 19.7373V0.294884H24.6273L33.1542 14.4879H31.571L39.9591 0.294884H42.9032L42.9587 19.7373H39.5147L39.4869 5.65544H40.209L33.0987 17.5153H31.4877L24.2662 5.65544H25.0995V19.7373H21.6832ZM51.7326 8.37738H61.3982V11.3493H51.7326V8.37738ZM52.0103 16.7098H62.9814V19.7373H48.3996V0.294884H62.5925V3.32235H52.0103V16.7098ZM75.9501 20.0151C74.4688 20.0151 73.0893 19.7743 71.8116 19.2929C70.5525 18.793 69.4508 18.0986 68.5064 17.2098C67.5806 16.3025 66.8585 15.2378 66.34 14.0157C65.8215 12.7936 65.5623 11.4604 65.5623 10.0161C65.5623 8.5718 65.8215 7.23861 66.34 6.01651C66.8585 4.79442 67.5899 3.73897 68.5342 2.85017C69.4785 1.94286 70.5803 1.24849 71.8394 0.767057C73.0985 0.267109 74.478 0.0171352 75.9779 0.0171352C77.5703 0.0171352 79.0239 0.294884 80.3385 0.850383C81.6532 1.38736 82.7642 2.19283 83.6715 3.2668L81.3384 5.46101C80.6348 4.70183 79.8478 4.13708 78.9776 3.76674C78.1073 3.3779 77.1629 3.18347 76.1445 3.18347C75.1261 3.18347 74.191 3.35012 73.3393 3.68342C72.506 4.01672 71.7746 4.48889 71.145 5.09994C70.534 5.71099 70.0526 6.43313 69.7007 7.26638C69.3674 8.09963 69.2008 9.0162 69.2008 10.0161C69.2008 11.016 69.3674 11.9326 69.7007 12.7658C70.0526 13.5991 70.534 14.3212 71.145 14.9322C71.7746 15.5433 72.506 16.0155 73.3393 16.3488C74.191 16.6821 75.1261 16.8487 76.1445 16.8487C77.1629 16.8487 78.1073 16.6636 78.9776 16.2932C79.8478 15.9044 80.6348 15.3211 81.3384 14.5434L83.6715 16.7654C82.7642 17.8208 81.6532 18.6263 80.3385 19.1818C79.0239 19.7373 77.561 20.0151 75.9501 20.0151ZM90.8899 19.7373V2.46133L91.751 3.35012H84.4739V0.294884H100.917V3.35012H93.6397L94.4729 2.46133V19.7373H90.8899ZM112.786 20.0151C111.268 20.0151 109.87 19.7651 108.592 19.2651C107.315 18.7652 106.204 18.0708 105.259 17.182C104.315 16.2747 103.584 15.2193 103.065 14.0157C102.547 12.7936 102.287 11.4604 102.287 10.0161C102.287 8.5718 102.547 7.24786 103.065 6.04429C103.584 4.82219 104.315 3.76674 105.259 2.87795C106.204 1.97064 107.315 1.26701 108.592 0.767057C109.87 0.267109 111.259 0.0171352 112.759 0.0171352C114.277 0.0171352 115.666 0.267109 116.925 0.767057C118.202 1.26701 119.313 1.97064 120.258 2.87795C121.202 3.76674 121.934 4.82219 122.452 6.04429C122.97 7.24786 123.23 8.5718 123.23 10.0161C123.23 11.4604 122.97 12.7936 122.452 14.0157C121.934 15.2378 121.202 16.2932 120.258 17.182C119.313 18.0708 118.202 18.7652 116.925 19.2651C115.666 19.7651 114.286 20.0151 112.786 20.0151ZM112.759 16.8487C113.74 16.8487 114.647 16.6821 115.48 16.3488C116.314 16.0155 117.036 15.5433 117.647 14.9322C118.258 14.3027 118.73 13.5805 119.063 12.7658C119.415 11.9326 119.591 11.016 119.591 10.0161C119.591 9.0162 119.415 8.10889 119.063 7.29416C118.73 6.46091 118.258 5.73876 117.647 5.12771C117.036 4.49815 116.314 4.01672 115.48 3.68342C114.647 3.35012 113.74 3.18347 112.759 3.18347C111.777 3.18347 110.87 3.35012 110.037 3.68342C109.222 4.01672 108.5 4.49815 107.87 5.12771C107.259 5.73876 106.778 6.46091 106.426 7.29416C106.093 8.10889 105.926 9.0162 105.926 10.0161C105.926 10.9975 106.093 11.9048 106.426 12.738C106.778 13.5713 107.259 14.3027 107.87 14.9322C108.481 15.5433 109.203 16.0155 110.037 16.3488C110.87 16.6821 111.777 16.8487 112.759 16.8487Z" fill="url(#paint0_linear_305_836)"/> <defs> <linearGradient id="paint0_linear_305_836" x1="62.5894" y1="-6.2627" x2="62.5894" y2="50.569" gradientUnits="userSpaceOnUse"> <stop stop-color="white"/> <stop offset="1" stop-color="white" stop-opacity="0"/> </linearGradient> </defs> </svg>