<svg xmlns="http://www.w3.org/2000/svg" width="108" height="21" viewBox="0 0 108 21" fill="none"> <path d="M0.539429 20.0859V0.643517H9.23297C11.4179 0.643517 13.1215 1.07866 14.3435 1.94894C15.5656 2.8007 16.1767 4.03205 16.1767 5.643C16.1767 7.23542 15.5934 8.46678 14.4269 9.33706C13.2603 10.1888 11.7234 10.6147 9.81624 10.6147L10.3162 9.61481C12.4826 9.61481 14.1584 10.0499 15.3434 10.9202C16.5285 11.7905 17.121 13.0496 17.121 14.6976C17.121 16.3826 16.5007 17.7066 15.2601 18.6694C14.0195 19.6138 12.1864 20.0859 9.76069 20.0859H0.539429ZM4.09461 17.3084H9.64959C10.9087 17.3084 11.8623 17.077 12.5104 16.6141C13.1585 16.1326 13.4825 15.4012 13.4825 14.4199C13.4825 13.4385 13.1585 12.7256 12.5104 12.2812C11.8623 11.8183 10.9087 11.5868 9.64959 11.5868H4.09461V17.3084ZM4.09461 8.94821H8.92744C10.094 8.94821 10.9828 8.71675 11.5938 8.25384C12.2049 7.7724 12.5104 7.08729 12.5104 6.19849C12.5104 5.27267 12.2049 4.57829 11.5938 4.11538C10.9828 3.65246 10.094 3.42101 8.92744 3.42101H4.09461V8.94821ZM33.8543 20.3637C32.4841 20.3637 31.1416 20.1693 29.827 19.7804C28.5308 19.373 27.4383 18.8176 26.5495 18.1139L28.0771 15.3087C28.7808 15.8827 29.6325 16.3456 30.6324 16.6974C31.6508 17.0492 32.7063 17.2251 33.7988 17.2251C35.0764 17.2251 36.0763 16.9566 36.7985 16.4197C37.5391 15.8827 37.9094 15.1605 37.9094 14.2532C37.9094 13.6422 37.7521 13.1052 37.4373 12.6423C37.141 12.1794 36.604 11.8275 35.8263 11.5868C35.0672 11.3461 34.021 11.2257 32.6878 11.2257H27.9938L28.9937 0.643517H40.4092V3.67098H30.3269L32.2156 1.94894L31.4657 9.86478L29.577 8.17051H33.4932C35.419 8.17051 36.9651 8.42974 38.1316 8.94821C39.3167 9.44816 40.1777 10.1518 40.7147 11.0591C41.2702 11.9479 41.548 12.9663 41.548 14.1143C41.548 15.2438 41.2702 16.2808 40.7147 17.2251C40.1592 18.1695 39.3075 18.9287 38.1594 19.5027C37.0299 20.0767 35.5949 20.3637 33.8543 20.3637ZM52.8065 20.0859V0.643517H60.8057C62.5278 0.643517 63.9998 0.921266 65.2219 1.47676C66.4625 2.03226 67.4161 2.82847 68.0827 3.8654C68.7493 4.90233 69.0826 6.13369 69.0826 7.55946C69.0826 8.98524 68.7493 10.2166 68.0827 11.2535C67.4161 12.2905 66.4625 13.0867 65.2219 13.6422C63.9998 14.1977 62.5278 14.4754 60.8057 14.4754H54.8063L56.4173 12.7811V20.0859H52.8065ZM56.4173 13.17L54.8063 11.4202H60.6391C62.2315 11.4202 63.4258 11.0869 64.222 10.4203C65.0368 9.73516 65.4441 8.78156 65.4441 7.55946C65.4441 6.31885 65.0368 5.36525 64.222 4.69865C63.4258 4.03205 62.2315 3.69875 60.6391 3.69875H54.8063L56.4173 1.92116V13.17ZM69.0501 20.0859L77.7992 0.643517H81.3544L90.1312 20.0859H86.3538L78.8268 2.55998H80.2711L72.7719 20.0859H69.0501ZM73.0774 15.5864L74.0496 12.7534H84.5485L85.5206 15.5864H73.0774ZM91.1962 18.1695L92.3628 15.5309C93.196 16.1049 94.1033 16.5493 95.0847 16.8641C96.0846 17.1603 97.0752 17.3177 98.0566 17.3362C99.038 17.3547 99.9268 17.2436 100.723 17.0029C101.538 16.7622 102.186 16.4011 102.667 15.9197C103.149 15.4383 103.389 14.8365 103.389 14.1143C103.389 13.2441 103.028 12.596 102.306 12.1701C101.603 11.7257 100.64 11.5035 99.4176 11.5035H94.8903V8.67046H99.1398C100.232 8.67046 101.075 8.44826 101.667 8.00386C102.278 7.55946 102.584 6.95767 102.584 6.19849C102.584 5.56893 102.38 5.05047 101.973 4.6431C101.584 4.23574 101.047 3.93021 100.362 3.72653C99.6953 3.52285 98.9362 3.43026 98.0844 3.44878C97.2511 3.44878 96.3809 3.5784 95.4736 3.83763C94.5662 4.07834 93.7052 4.43942 92.8905 4.92085L91.7517 2.00449C92.9738 1.35641 94.2515 0.902749 95.5847 0.643517C96.9364 0.384284 98.2418 0.310218 99.5009 0.421319C100.76 0.532418 101.89 0.819425 102.889 1.28234C103.908 1.74525 104.723 2.3563 105.334 3.11548C105.945 3.85615 106.25 4.73568 106.25 5.7541C106.25 6.67993 106 7.50391 105.5 8.22606C105.019 8.92969 104.352 9.47593 103.5 9.86478C102.649 10.2536 101.658 10.4481 100.529 10.4481L100.667 9.55926C101.945 9.55926 103.056 9.78145 104 10.2259C104.963 10.6517 105.704 11.2443 106.222 12.0034C106.759 12.7626 107.028 13.6422 107.028 14.6421C107.028 15.5864 106.787 16.4289 106.306 17.1696C105.824 17.8917 105.167 18.5028 104.334 19.0027C103.5 19.4841 102.547 19.8452 101.473 20.0859C100.399 20.3081 99.2695 20.3915 98.0844 20.3359C96.8993 20.2804 95.7143 20.0767 94.5292 19.7249C93.3627 19.373 92.2517 18.8546 91.1962 18.1695Z" fill="url(#paint0_linear_305_839)"/> <defs> <linearGradient id="paint0_linear_305_839" x1="53.1089" y1="-5.91406" x2="53.1089" y2="50.9176" gradientUnits="userSpaceOnUse"> <stop stop-color="white"/> <stop offset="1" stop-color="white" stop-opacity="0"/> </linearGradient> </defs> </svg>