<svg xmlns="http://www.w3.org/2000/svg" width="34" height="33" viewBox="0 0 34 33" fill="none"> <g filter="url(#filter0_b_305_629)"> <path d="M2.55286 16.6357C2.55286 8.58198 9.08699 2.04785 17.1407 2.04785C25.1944 2.04785 31.7285 8.58198 31.7285 16.6357C31.7285 24.6894 25.1944 31.2235 17.1407 31.2235C9.08699 31.2235 2.55286 24.6894 2.55286 16.6357Z" fill="#5F9BD7" fill-opacity="0.46"/> <path d="M2.55286 16.6357C2.55286 8.58198 9.08699 2.04785 17.1407 2.04785C25.1944 2.04785 31.7285 8.58198 31.7285 16.6357C31.7285 24.6894 25.1944 31.2235 17.1407 31.2235C9.08699 31.2235 2.55286 24.6894 2.55286 16.6357Z" stroke="white" stroke-miterlimit="10"/> </g> <path d="M17.5611 21.7203L22.6055 16.6365L17.5611 11.5527M21.9045 16.6365H11.6753" stroke="white" stroke-linecap="round" stroke-linejoin="round"/> <defs> <filter id="filter0_b_305_629" x="-5.88295" y="-6.38783" width="46.0471" height="46.0471" filterUnits="userSpaceOnUse" color-interpolation-filters="sRGB"> <feFlood flood-opacity="0" result="BackgroundImageFix"/> <feGaussianBlur in="BackgroundImageFix" stdDeviation="3.96784"/> <feComposite in2="SourceAlpha" operator="in" result="effect1_backgroundBlur_305_629"/> <feBlend mode="normal" in="SourceGraphic" in2="effect1_backgroundBlur_305_629" result="shape"/> </filter> </defs> </svg>